<?xml version="1.0" encoding="UTF-8"?>
<svg version="1.1" xmlns="http://www.w3.org/2000/svg" width="1080" height="236">
<path d="M0 0 C6.6 0 13.2 0 20 0 C20 29.7 20 59.4 20 90 C28.5490625 89.98839844 37.098125 89.97679688 45.90625 89.96484375 C52.04065168 89.95907817 58.17505129 89.95395303 64.30945396 89.94974613 C72.23837261 89.94422401 80.16728062 89.93723476 88.09619141 89.92456055 C94.37799319 89.91452408 100.65978693 89.90812547 106.94159651 89.90591151 C110.2609502 89.90461946 113.5802628 89.90108773 116.89961243 89.89426994 C120.62514568 89.88692766 124.35063246 89.88601455 128.07617188 89.88647461 C129.6870443 89.8810817 129.6870443 89.8810817 131.33045959 89.87557983 C139.95883459 89.88698358 148.33599531 90.45849971 157 91 C157 126.97 157 162.94 157 200 C150.73 200 144.46 200 138 200 C136.90097817 169.97315357 137 140.07939661 137 110 C98.39 110 59.78 110 20 110 C20 139.7 20 169.4 20 200 C13.4 200 6.8 200 0 200 C0 134 0 68 0 0 Z " fill="#AABCE3" transform="translate(15,21)"/>
<path d="M0 0 C11.46598607 -0.06786873 22.93183797 -0.12286982 34.39797974 -0.15543652 C39.72258996 -0.17106956 45.04705522 -0.19226479 50.37158203 -0.22631836 C55.51333027 -0.25899588 60.65493935 -0.27687077 65.79678345 -0.28463173 C67.7551187 -0.29016017 69.71344664 -0.30095584 71.67172241 -0.31719017 C74.42193863 -0.33907598 77.17158523 -0.34196227 79.921875 -0.34057617 C80.72532852 -0.351362 81.52878204 -0.36214783 82.35658264 -0.3732605 C87.87552421 -0.34330739 91.92559866 0.81611639 97 3 C97.73202637 3.30760254 98.46405273 3.61520508 99.21826172 3.93212891 C115.59806247 11.53553428 126.98352529 21.40456604 134 38.5625 C136.23891672 45.89400357 136.49181657 53.04901189 136.5625 60.6875 C136.58473633 62.37951538 136.58473633 62.37951538 136.60742188 64.10571289 C136.42285273 79.15139412 130.56106651 92.49659744 120.1875 103.375 C115.54548477 107.77678917 110.65199713 111.04221912 105 114 C103.865625 114.61875 102.73125 115.2375 101.5625 115.875 C99 117 99 117 96 117 C96.76158996 118.43855881 97.52318075 119.87711717 98.28477478 121.31567383 C98.97893046 122.62686485 99.6730726 123.93806305 100.36720276 125.24926758 C102.3513429 128.99723517 104.33573837 132.74506726 106.32055664 136.49267578 C110.09628522 143.62235029 113.87089023 150.75259628 117.63595581 157.88790894 C119.56877079 161.55081842 121.50302487 165.21296709 123.4375 168.875 C123.81241577 169.58509216 124.18733154 170.29518433 124.5736084 171.02679443 C129.60958392 180.56005517 134.70358381 190.05586883 140.00561523 199.44482422 C143 204.79172603 143 204.79172603 143 207 C140.59087645 208.36936501 138.17425815 209.72041993 135.75 211.0625 C135.06808594 211.45244141 134.38617187 211.84238281 133.68359375 212.24414062 C133.01972656 212.60830078 132.35585937 212.97246094 131.671875 213.34765625 C131.0644043 213.68804932 130.45693359 214.02844238 129.83105469 214.37915039 C127.4172575 215.19758856 126.31948199 215.05074058 124 214 C122.63476562 212.12426758 122.63476562 212.12426758 121.40625 209.64453125 C120.93977051 208.72381836 120.47329102 207.80310547 119.99267578 206.85449219 C119.50009277 205.85063477 119.00750977 204.84677734 118.5 203.8125 C117.42644655 201.68780687 116.35087656 199.56413161 115.2734375 197.44140625 C114.7278418 196.36004395 114.18224609 195.27868164 113.62011719 194.16455078 C111.2180148 189.47255995 108.67628865 184.86204339 106.125 180.25 C101.00013457 170.93628294 96.07832109 161.52581354 91.2421875 152.05908203 C88.43011601 146.57852417 85.55859005 141.16771194 82.4453125 135.8515625 C71.83328905 117.63293339 71.83328905 117.63293339 74 107 C74.94359375 106.74347656 75.8871875 106.48695312 76.859375 106.22265625 C89.28122185 102.61479262 99.49313336 96.82853557 106.6015625 85.59375 C113.00747372 73.71239512 114.21420852 62.41015938 111.00390625 49.32421875 C108.35646574 40.55779121 103.98493054 33.03292623 97 27 C96.42804398 26.50521149 95.85608795 26.01042297 95.26679993 25.50064087 C86.64464944 19.2074367 77.19341644 20.14180344 66.9921875 20.1953125 C65.05590164 20.18404887 63.11962943 20.17016236 61.18338013 20.15377808 C56.1165708 20.11788072 51.05036662 20.11734871 45.98345947 20.12445068 C40.80136426 20.12536645 35.61949238 20.09246453 30.4375 20.0625 C20.29153152 20.00876959 10.14610994 19.99556966 0 20 C0 13.4 0 6.8 0 0 Z " fill="#A9BBE3" transform="translate(929,18)"/>
<path d="M0 0 C6.27 0 12.54 0 19 0 C19 59.4 19 118.8 19 180 C54.64 180 90.28 180 127 180 C127 186.6 127 193.2 127 200 C85.09 200 43.18 200 0 200 C0 134 0 68 0 0 Z " fill="#A7BAE2" transform="translate(581,24)"/>
<path d="M0 0 C3.80133442 1.67923025 6.97082702 4.11462834 10.25 6.625 C10.80429687 7.04523437 11.35859375 7.46546875 11.9296875 7.8984375 C13.28866663 8.92938719 14.64463835 9.96429911 16 11 C14.3731545 14.6538776 12.13308374 17.59595747 9.6875 20.75 C9.25308594 21.31074219 8.81867188 21.87148438 8.37109375 22.44921875 C4.26766464 27.71682298 0.04566772 32.88677964 -4.1809082 38.05566406 C-7.52457881 42.15388198 -10.7932501 46.29374364 -14 50.5 C-17.7436857 55.41054877 -21.59113103 60.22009915 -25.5 65 C-30.70489598 71.36878013 -35.77430123 77.82024366 -40.75439453 84.36621094 C-43.03409786 87.35636669 -45.33085798 90.33341776 -47.625 93.3125 C-48.4714218 94.41270839 -49.31778259 95.51296372 -50.1640625 96.61328125 C-50.76992188 97.40089844 -51.37578125 98.18851562 -52 99 C-49.02434903 104.54487157 -45.54630205 109.33938363 -41.625 114.25 C-36.59581757 120.62947621 -31.67472411 127.07104163 -26.875 133.625 C-22.61492874 139.44115932 -18.33712004 145.24101551 -14 151 C-9.64639266 156.78278152 -5.34503129 162.60191751 -1.0625 168.4375 C5.50626262 177.38365997 12.22444565 186.20978747 19 195 C17.16755652 199.12109696 14.47793521 201.18364012 10.875 203.75 C10.31167969 204.16121094 9.74835938 204.57242188 9.16796875 204.99609375 C7.78398366 206.00476085 6.39269459 207.00339286 5 208 C1.21924449 206.5027539 -0.40670546 204.46342576 -2.75 201.1875 C-3.53627328 200.10438762 -4.32417008 199.02245281 -5.11328125 197.94140625 C-5.78351318 197.01932373 -5.78351318 197.01932373 -6.46728516 196.07861328 C-8.88063417 192.80571531 -11.36371233 189.58686259 -13.83886719 186.3605957 C-18.99215142 179.64322136 -24.13134585 172.92745936 -29 166 C-33.76104469 159.22658647 -38.79448015 152.66990973 -43.8293457 146.09863281 C-48.93173912 139.4295418 -53.93810831 132.69668295 -58.89233398 125.91699219 C-61.78869532 121.96387858 -64.72021707 118.04611809 -67.7265625 114.17578125 C-68.62918823 113.01224121 -68.62918823 113.01224121 -69.55004883 111.82519531 C-70.69509842 110.35514134 -71.84568428 108.88937699 -73.00268555 107.42871094 C-73.51355713 106.77290039 -74.02442871 106.11708984 -74.55078125 105.44140625 C-75.22620972 104.58591187 -75.22620972 104.58591187 -75.9152832 103.71313477 C-77.16089718 101.74588892 -77.76220878 100.32209536 -78 98 C-77.12646484 96.34692383 -77.12646484 96.34692383 -75.7109375 94.70703125 C-75.18830322 94.08578369 -74.66566895 93.46453613 -74.12719727 92.82446289 C-73.54897217 92.16051514 -72.97074707 91.49656738 -72.375 90.8125 C-71.16044757 89.37173821 -69.94827655 87.92896613 -68.73828125 86.484375 C-68.1138916 85.74251953 -67.48950195 85.00066406 -66.84619141 84.23632812 C-63.97622717 80.75988375 -61.27166752 77.16468941 -58.5625 73.5625 C-53.56687836 66.96027674 -48.38533977 60.53994378 -43.09667969 54.17089844 C-37.60132195 47.54639964 -32.28684068 40.79121032 -27 34 C-20.52901074 25.70392085 -13.98704351 17.4738326 -7.32666016 9.32861328 C-4.82178761 6.26210317 -2.3374668 3.19778444 0 0 Z " fill="#ABBCE3" transform="translate(529,16)"/>
<path d="M0 0 C6.6 0 13.2 0 20 0 C20.1737711 13.85408593 20.34060424 27.70824097 20.5 41.5625 C20.51781588 43.11039467 20.51781588 43.11039467 20.53599167 44.68955994 C20.87354378 74.21019036 21.09555545 103.72735167 21.0625 133.25 C21.06164398 134.02025135 21.06078796 134.7905027 21.05990601 135.584095 C21.04895636 144.72276012 21.02867401 153.86137175 21 163 C14.4 163 7.8 163 1 163 C0.86722784 148.39191385 0.73669883 133.78380931 0.60884857 119.17567921 C0.54938294 112.38704752 0.48918311 105.5984241 0.42724609 98.80981445 C0.12728517 65.8722186 -0.07548328 32.93901506 0 0 Z " fill="#A9BBE3" transform="translate(924,61)"/>
<path d="M0 0 C41.91 0 83.82 0 127 0 C127 6.6 127 13.2 127 20 C85.09 20 43.18 20 0 20 C0 13.4 0 6.8 0 0 Z " fill="#AABCE3" transform="translate(755,204)"/>
<path d="M0 0 C41.91 0 83.82 0 127 0 C127 6.6 127 13.2 127 20 C85.09 20 43.18 20 0 20 C0 13.4 0 6.8 0 0 Z " fill="#AABCE3" transform="translate(755,110)"/>
<path d="M0 0 C41.91 0 83.82 0 127 0 C127 6.6 127 13.2 127 20 C85.09 20 43.18 20 0 20 C0 13.4 0 6.8 0 0 Z " fill="#AABCE3" transform="translate(755,18)"/>
<path d="M0 0 C41.91 0 83.82 0 127 0 C127 6.6 127 13.2 127 20 C85.09 20 43.18 20 0 20 C0 13.4 0 6.8 0 0 Z " fill="#ABBCE4" transform="translate(219,12)"/>
<path d="M0 0 C16.41108739 -0.02311886 32.8221681 -0.04097916 49.23326778 -0.05181217 C56.85270173 -0.05697514 64.47212539 -0.06401784 72.09155273 -0.07543945 C78.73028827 -0.08538628 85.36901637 -0.09185342 92.00775915 -0.09408849 C95.52504336 -0.09539561 99.04230626 -0.09848147 102.55958366 -0.10573006 C106.47974938 -0.11374389 110.39989399 -0.11399114 114.32006836 -0.11352539 C115.49466614 -0.11712067 116.66926392 -0.12071594 117.87945557 -0.12442017 C119.47179268 -0.12235817 119.47179268 -0.12235817 121.09629822 -0.12025452 C122.02454375 -0.12117631 122.95278929 -0.1220981 123.90916348 -0.12304783 C126 0 126 0 127 1 C127 7.27 127 13.54 127 20 C85.09 20 43.18 20 0 20 C0 13.4 0 6.8 0 0 Z " fill="#ABBCE4" transform="translate(219,111)"/>
<path d="M0 0 C41.91 0 83.82 0 127 0 C127 5.94 127 11.88 127 18 C126 19 126 19 123.90916348 19.12304783 C122.51679517 19.12166514 122.51679517 19.12166514 121.09629822 19.12025452 C119.50396111 19.12231651 119.50396111 19.12231651 117.87945557 19.12442017 C116.70485779 19.12082489 115.53026001 19.11722961 114.32006836 19.11352539 C113.09097244 19.11367142 111.86187653 19.11381744 110.59553528 19.1139679 C107.21551328 19.11338892 103.83555171 19.10835964 100.45554042 19.10139394 C96.92678806 19.09515988 93.39803497 19.09455656 89.86927795 19.09336853 C83.18276881 19.09025537 76.49627594 19.08204218 69.80977398 19.07201904 C62.19925697 19.06085744 54.5887392 19.05534733 46.97821605 19.05032361 C31.31880101 19.03985956 15.65940324 19.02205994 0 19 C0 12.73 0 6.46 0 0 Z " fill="#A6B9E2" transform="translate(219,205)"/>
<path d="M0 0 C6.6 0 13.2 0 20 0 C20 23.76 20 47.52 20 72 C13.4 72 6.8 72 0 72 C0 48.24 0 24.48 0 0 Z " fill="#ABBCE3" transform="translate(152,22)"/>
<path d="M0 0 C3.89917968 1.61537444 6.71293772 4.27924873 9.75 7.125 C10.25660156 7.59292969 10.76320313 8.06085938 11.28515625 8.54296875 C12.52719141 9.69126541 13.76411494 10.84508672 15 12 C13.49998409 17.47878152 9.66174984 20.85911586 5.8125 24.8125 C4.50515689 26.17187666 3.19916342 27.53255261 1.89453125 28.89453125 C1.24758301 29.5695166 0.60063477 30.24450195 -0.06591797 30.93994141 C-2.59296345 33.63158617 -5.01795289 36.40361903 -7.43481445 39.1940918 C-9.42559584 41.4910517 -11.4599321 43.74679068 -13.5 46 C-19.43530645 52.58022939 -25.24472571 59.26211791 -31 66 C-35.32046898 64.58319756 -38.00461199 62.46236215 -41.3125 59.375 C-42.19550781 58.55773437 -43.07851563 57.74046875 -43.98828125 56.8984375 C-44.65214844 56.27195313 -45.31601562 55.64546875 -46 55 C-45.43928229 51.05688837 -43.55781148 49.10560273 -40.875 46.25 C-40.05773437 45.36828125 -39.24046875 44.4865625 -38.3984375 43.578125 C-37.60695313 42.72734375 -36.81546875 41.8765625 -36 41 C-34.8269857 39.67224764 -33.65971254 38.33938632 -32.5 37 C-29.86310364 33.97245233 -27.18983431 30.98062721 -24.5 28 C-17.87865983 20.65532015 -11.42210169 13.17700305 -4.9987793 5.65917969 C-1.10322922 1.10322922 -1.10322922 1.10322922 0 0 Z " fill="#5E728E" transform="translate(429,161)"/>
<path d="M0 0 C4.15234628 3.88858563 7.34277955 8.07242445 10.5625 12.75 C11.62223661 14.27094429 12.68213717 15.79177435 13.7421875 17.3125 C14.28069336 18.08851562 14.81919922 18.86453125 15.37402344 19.6640625 C17.95688066 23.37468981 20.57421278 27.06077704 23.1875 30.75 C28.17103592 37.80180503 33.10224314 44.88835809 38 52 C34.80233926 55.32395973 31.60053081 58.18208224 27.8125 60.8125 C26.52279297 61.71935547 26.52279297 61.71935547 25.20703125 62.64453125 C23 64 23 64 21 64 C19.78588867 62.54150391 19.78588867 62.54150391 18.41796875 60.4765625 C17.64803589 59.32933716 17.64803589 59.32933716 16.86254883 58.15893555 C16.30978271 57.32273682 15.7570166 56.48653809 15.1875 55.625 C14.0097884 53.87236856 12.83004832 52.12109874 11.6484375 50.37109375 C11.04354492 49.47503418 10.43865234 48.57897461 9.81542969 47.65576172 C7.05260433 43.61407072 4.19126236 39.64708956 1.3125 35.6875 C0.51199219 34.58257202 0.51199219 34.58257202 -0.3046875 33.45532227 C-2.87083783 29.91703809 -5.44931632 26.38823003 -8.0390625 22.8671875 C-8.96364758 21.59903555 -9.88813244 20.33081051 -10.8125 19.0625 C-11.23942139 18.48910889 -11.66634277 17.91571777 -12.10620117 17.32495117 C-15 13.33922154 -15 13.33922154 -15 10 C-13.62304688 8.74145508 -13.62304688 8.74145508 -11.71875 7.51953125 C-11.04199219 7.07802734 -10.36523438 6.63652344 -9.66796875 6.18164062 C-8.95253906 5.72982422 -8.23710937 5.27800781 -7.5 4.8125 C-6.78457031 4.34908203 -6.06914062 3.88566406 -5.33203125 3.40820312 C-3.56071878 2.2627544 -1.78110873 1.13015589 0 0 Z " fill="#5F738E" transform="translate(402,16)"/>
<path d="M0 0 C0.99 0.33 1.98 0.66 3 1 C0.33333333 3.66666667 -2.33333333 6.33333333 -5 9 C-5.66 8.67 -6.32 8.34 -7 8 C-4.69 5.36 -2.38 2.72 0 0 Z " fill="#9CA8B9" transform="translate(429,161)"/>
</svg>
